<svg width="110" height="103" viewBox="0 0 110 103" fill="none" xmlns="http://www.w3.org/2000/svg">
<g clip-path="url(#clip0_788_10)">
<g filter="url(#filter0_d_788_10)">
<path d="M21.6799 58.4764L30.7714 39.5767L39.863 58.4764H21.6799Z" stroke="#F4F4F4" stroke-width="0.5" shape-rendering="crispEdges"/>
</g>
<g filter="url(#filter1_d_788_10)">
<path d="M31.1929 59.1135H14.9201L12.6499 56.0192H49.7358L47.4657 59.1135H31.1929Z" fill="#F4F4F4"/>
</g>
<g filter="url(#filter2_d_788_10)">
<path d="M70.03 58.4764L79.1215 39.5767L88.2131 58.4764H70.03Z" stroke="#F4F4F4" stroke-width="0.5" shape-rendering="crispEdges"/>
</g>
<g filter="url(#filter3_d_788_10)">
<path d="M78.543 59.1135H62.2702L60 56.0192H97.0859L94.8158 59.1135H78.543Z" fill="#F4F4F4"/>
</g>
<path d="M55.25 8L54.25 74" stroke="#F4F4F4" stroke-width="8" stroke-linecap="round"/>
<path d="M113 76L-1.54972e-06 76" stroke="#F4F4F4" stroke-width="5" stroke-linecap="round"/>
<rect width="7.33998" height="44.0399" transform="matrix(-0.661615 -0.749843 -0.661615 0.749843 59.75 6.60742)" fill="#F4F4F4"/>
<rect width="7.33998" height="44.0399" transform="matrix(0.661615 -0.749843 0.661615 0.749843 50.25 6.60742)" fill="#F4F4F4"/>
<path d="M104.748 1.23941e-05L109.604 5.50385L82.533 36.1849L77.6768 30.681L104.748 1.23941e-05Z" fill="#F4F4F4"/>
<path d="M5.25219 1.23941e-05L0.395942 5.50385L27.467 36.1849L32.3232 30.681L5.25219 1.23941e-05Z" fill="#F4F4F4"/>
<path d="M51.8604 94V90.184H50.3844V89.8H53.7804V90.184H52.3044V94H51.8604ZM53.6067 94L55.5267 89.8H55.9647L57.8847 94H57.4167L55.6527 90.058H55.8327L54.0687 94H53.6067ZM54.3627 92.878L54.4947 92.518H56.9367L57.0687 92.878H54.3627ZM57.8041 94L59.5261 91.672V92.014L57.9061 89.8H58.4161L59.7781 91.648L59.5801 91.654L60.9421 89.8H61.4221L59.8201 91.984V91.672L61.5361 94H61.0201L59.5681 92.026H59.7541L58.3141 94H57.8041Z" fill="#64541C"/>
<path d="M17.21 88.06C16.6767 88.06 16.1833 87.9733 15.73 87.8C15.2833 87.62 14.8933 87.37 14.56 87.05C14.2333 86.73 13.9767 86.3533 13.79 85.92C13.61 85.4867 13.52 85.0133 13.52 84.5C13.52 83.9867 13.61 83.5133 13.79 83.08C13.9767 82.6467 14.2367 82.27 14.57 81.95C14.9033 81.63 15.2933 81.3833 15.74 81.21C16.1933 81.03 16.6867 80.94 17.22 80.94C17.7533 80.94 18.24 81.0233 18.68 81.19C19.1267 81.3567 19.5067 81.61 19.82 81.95L19.36 82.42C19.0667 82.1267 18.7433 81.9167 18.39 81.79C18.0367 81.6633 17.6567 81.6 17.25 81.6C16.8167 81.6 16.4167 81.6733 16.05 81.82C15.69 81.96 15.3733 82.1633 15.1 82.43C14.8333 82.69 14.6233 82.9967 14.47 83.35C14.3233 83.6967 14.25 84.08 14.25 84.5C14.25 84.9133 14.3233 85.2967 14.47 85.65C14.6233 86.0033 14.8333 86.3133 15.1 86.58C15.3733 86.84 15.69 87.0433 16.05 87.19C16.4167 87.33 16.8133 87.4 17.24 87.4C17.64 87.4 18.0167 87.34 18.37 87.22C18.73 87.1 19.06 86.8967 19.36 86.61L19.78 87.17C19.4467 87.4633 19.0567 87.6867 18.61 87.84C18.1633 87.9867 17.6967 88.06 17.21 88.06ZM19.07 87.08V84.5H19.78V87.17L19.07 87.08ZM21.8744 88V81H22.6144V88H21.8744ZM24.892 88V81H25.632V87.36H29.552V88H24.892ZM30.7806 88V81H31.5206V87.36H35.4406V88H30.7806ZM36.6693 88V81H37.4093V88H36.6693ZM38.5669 88L41.7669 81H42.4969L45.6969 88H44.9169L41.9769 81.43H42.2769L39.3369 88H38.5669ZM39.8269 86.13L40.0469 85.53H44.1169L44.3369 86.13H39.8269ZM46.8548 88V81H47.4648L52.2948 87.08H51.9748V81H52.7048V88H52.0948L47.2748 81.92H47.5948V88H46.8548ZM59.1968 88L56.8368 81H57.5968L59.8068 87.59H59.4268L61.7068 81H62.3868L64.6368 87.59H64.2768L66.5068 81H67.2168L64.8568 88H64.0768L61.9268 81.75H62.1268L59.9668 88H59.1968ZM71.575 88.06C71.0483 88.06 70.5583 87.9733 70.105 87.8C69.6583 87.62 69.2683 87.37 68.935 87.05C68.6083 86.7233 68.3517 86.3467 68.165 85.92C67.985 85.4867 67.895 85.0133 67.895 84.5C67.895 83.9867 67.985 83.5167 68.165 83.09C68.3517 82.6567 68.6083 82.28 68.935 81.96C69.2683 81.6333 69.6583 81.3833 70.105 81.21C70.5517 81.03 71.0417 80.94 71.575 80.94C72.1017 80.94 72.5883 81.03 73.035 81.21C73.4817 81.3833 73.8683 81.63 74.195 81.95C74.5283 82.27 74.785 82.6467 74.965 83.08C75.1517 83.5133 75.245 83.9867 75.245 84.5C75.245 85.0133 75.1517 85.4867 74.965 85.92C74.785 86.3533 74.5283 86.73 74.195 87.05C73.8683 87.37 73.4817 87.62 73.035 87.8C72.5883 87.9733 72.1017 88.06 71.575 88.06ZM71.575 87.4C71.995 87.4 72.3817 87.33 72.735 87.19C73.095 87.0433 73.405 86.84 73.665 86.58C73.9317 86.3133 74.1383 86.0067 74.285 85.66C74.4317 85.3067 74.505 84.92 74.505 84.5C74.505 84.08 74.4317 83.6967 74.285 83.35C74.1383 82.9967 73.9317 82.69 73.665 82.43C73.405 82.1633 73.095 81.96 72.735 81.82C72.3817 81.6733 71.995 81.6 71.575 81.6C71.155 81.6 70.765 81.6733 70.405 81.82C70.045 81.96 69.7317 82.1633 69.465 82.43C69.205 82.69 68.9983 82.9967 68.845 83.35C68.6983 83.6967 68.625 84.08 68.625 84.5C68.625 84.9133 68.6983 85.2967 68.845 85.65C68.9983 86.0033 69.205 86.3133 69.465 86.58C69.7317 86.84 70.045 87.0433 70.405 87.19C70.765 87.33 71.155 87.4 71.575 87.4ZM76.9037 88V81H77.6437V87.36H81.5637V88H76.9037ZM83.4523 84.39H87.1523V85.03H83.4523V84.39ZM83.5323 88H82.7923V81H87.5923V81.64H83.5323V88ZM89.7805 84.39H93.4805V85.03H89.7805V84.39ZM89.8605 88H89.1205V81H93.9205V81.64H89.8605V88ZM96.1086 84.13H99.8086V84.76H96.1086V84.13ZM96.1886 87.36H100.399V88H95.4486V81H100.249V81.64H96.1886V87.36Z" fill="#64541C"/>
</g>
<defs>
<filter id="filter0_d_788_10" x="17.2822" y="39" width="26.9785" height="27.7266" filterUnits="userSpaceOnUse" color-interpolation-filters="sRGB">
<feFlood flood-opacity="0" result="BackgroundImageFix"/>
<feColorMatrix in="SourceAlpha" type="matrix" values="0 0 0 0 0 0 0 0 0 0 0 0 0 0 0 0 0 0 127 0" result="hardAlpha"/>
<feOffset dy="4"/>
<feGaussianBlur stdDeviation="2"/>
<feComposite in2="hardAlpha" operator="out"/>
<feColorMatrix type="matrix" values="0 0 0 0 0 0 0 0 0 0 0 0 0 0 0 0 0 0 0.25 0"/>
<feBlend mode="normal" in2="BackgroundImageFix" result="effect1_dropShadow_788_10"/>
<feBlend mode="normal" in="SourceGraphic" in2="effect1_dropShadow_788_10" result="shape"/>
</filter>
<filter id="filter1_d_788_10" x="8.6499" y="54.0195" width="45.0859" height="11.0938" filterUnits="userSpaceOnUse" color-interpolation-filters="sRGB">
<feFlood flood-opacity="0" result="BackgroundImageFix"/>
<feColorMatrix in="SourceAlpha" type="matrix" values="0 0 0 0 0 0 0 0 0 0 0 0 0 0 0 0 0 0 127 0" result="hardAlpha"/>
<feOffset dy="2"/>
<feGaussianBlur stdDeviation="2"/>
<feComposite in2="hardAlpha" operator="out"/>
<feColorMatrix type="matrix" values="0 0 0 0 0 0 0 0 0 0 0 0 0 0 0 0 0 0 0.25 0"/>
<feBlend mode="normal" in2="BackgroundImageFix" result="effect1_dropShadow_788_10"/>
<feBlend mode="normal" in="SourceGraphic" in2="effect1_dropShadow_788_10" result="shape"/>
</filter>
<filter id="filter2_d_788_10" x="65.6323" y="39" width="26.9785" height="27.7266" filterUnits="userSpaceOnUse" color-interpolation-filters="sRGB">
<feFlood flood-opacity="0" result="BackgroundImageFix"/>
<feColorMatrix in="SourceAlpha" type="matrix" values="0 0 0 0 0 0 0 0 0 0 0 0 0 0 0 0 0 0 127 0" result="hardAlpha"/>
<feOffset dy="4"/>
<feGaussianBlur stdDeviation="2"/>
<feComposite in2="hardAlpha" operator="out"/>
<feColorMatrix type="matrix" values="0 0 0 0 0 0 0 0 0 0 0 0 0 0 0 0 0 0 0.25 0"/>
<feBlend mode="normal" in2="BackgroundImageFix" result="effect1_dropShadow_788_10"/>
<feBlend mode="normal" in="SourceGraphic" in2="effect1_dropShadow_788_10" result="shape"/>
</filter>
<filter id="filter3_d_788_10" x="56" y="54.0195" width="45.0859" height="11.0938" filterUnits="userSpaceOnUse" color-interpolation-filters="sRGB">
<feFlood flood-opacity="0" result="BackgroundImageFix"/>
<feColorMatrix in="SourceAlpha" type="matrix" values="0 0 0 0 0 0 0 0 0 0 0 0 0 0 0 0 0 0 127 0" result="hardAlpha"/>
<feOffset dy="2"/>
<feGaussianBlur stdDeviation="2"/>
<feComposite in2="hardAlpha" operator="out"/>
<feColorMatrix type="matrix" values="0 0 0 0 0 0 0 0 0 0 0 0 0 0 0 0 0 0 0.25 0"/>
<feBlend mode="normal" in2="BackgroundImageFix" result="effect1_dropShadow_788_10"/>
<feBlend mode="normal" in="SourceGraphic" in2="effect1_dropShadow_788_10" result="shape"/>
</filter>
<clipPath id="clip0_788_10">
<rect width="110" height="102.446" fill="white"/>
</clipPath>
</defs>
</svg>
